<svg width="31" height="31" viewBox="0 0 31 31" fill="none" xmlns="http://www.w3.org/2000/svg">
<path d="M30.7384 6.27859C30.6328 6.15222 30.5008 6.05058 30.3516 5.98084C30.2024 5.9111 30.0397 5.87497 29.875 5.875H7.18937L6.50172 2.09781C6.40753 1.57938 6.13438 1.11044 5.72988 0.772762C5.32538 0.435081 4.8152 0.250076 4.28828 0.25H1.75C1.45163 0.25 1.16548 0.368526 0.954505 0.579505C0.743526 0.790483 0.625 1.07663 0.625 1.375C0.625 1.67337 0.743526 1.95952 0.954505 2.1705C1.16548 2.38147 1.45163 2.5 1.75 2.5H4.28125L7.87563 22.2283C7.9815 22.8134 8.24007 23.3601 8.62516 23.8131C8.09366 24.3096 7.71004 24.9435 7.51683 25.6446C7.32362 26.3458 7.32838 27.0867 7.53057 27.7853C7.73276 28.4839 8.12449 29.1129 8.66232 29.6025C9.20014 30.092 9.86305 30.4231 10.5775 30.5589C11.292 30.6947 12.0302 30.63 12.7101 30.3719C13.39 30.1138 13.9852 29.6725 14.4297 29.0968C14.8741 28.5211 15.1504 27.8336 15.2279 27.1104C15.3054 26.3873 15.1812 25.6568 14.8689 25H21.2561C21.0044 25.5269 20.8742 26.1036 20.875 26.6875C20.875 27.4663 21.1059 28.2275 21.5386 28.8751C21.9712 29.5226 22.5862 30.0273 23.3057 30.3253C24.0252 30.6233 24.8169 30.7013 25.5807 30.5493C26.3445 30.3974 27.0461 30.0224 27.5967 29.4717C28.1474 28.9211 28.5224 28.2195 28.6743 27.4557C28.8263 26.6919 28.7483 25.9002 28.4503 25.1807C28.1523 24.4612 27.6476 23.8462 27.0001 23.4136C26.3525 22.9809 25.5913 22.75 24.8125 22.75H11.1958C10.9323 22.75 10.6772 22.6575 10.475 22.4886C10.2727 22.3198 10.1362 22.0853 10.0891 21.8261L9.64328 19.375H25.9558C26.7462 19.3749 27.5114 19.0974 28.1182 18.5909C28.7249 18.0843 29.1347 17.3809 29.2759 16.6033L30.9859 7.20109C31.0149 7.03859 31.0077 6.8717 30.9649 6.71227C30.9222 6.55285 30.8448 6.40479 30.7384 6.27859ZM13 26.6875C13 27.0213 12.901 27.3475 12.7156 27.625C12.5302 27.9025 12.2666 28.1188 11.9583 28.2465C11.6499 28.3743 11.3106 28.4077 10.9833 28.3426C10.6559 28.2775 10.3553 28.1167 10.1193 27.8807C9.88326 27.6447 9.72254 27.3441 9.65742 27.0167C9.59231 26.6894 9.62573 26.3501 9.75345 26.0417C9.88118 25.7334 10.0975 25.4698 10.375 25.2844C10.6525 25.099 10.9787 25 11.3125 25C11.7601 25 12.1893 25.1778 12.5057 25.4943C12.8222 25.8107 13 26.2399 13 26.6875ZM26.5 26.6875C26.5 27.0213 26.401 27.3475 26.2156 27.625C26.0302 27.9025 25.7666 28.1188 25.4583 28.2465C25.1499 28.3743 24.8106 28.4077 24.4833 28.3426C24.1559 28.2775 23.8553 28.1167 23.6193 27.8807C23.3833 27.6447 23.2225 27.3441 23.1574 27.0167C23.0923 26.6894 23.1257 26.3501 23.2535 26.0417C23.3812 25.7334 23.5975 25.4698 23.875 25.2844C24.1525 25.099 24.4787 25 24.8125 25C25.2601 25 25.6893 25.1778 26.0057 25.4943C26.3222 25.8107 26.5 26.2399 26.5 26.6875ZM27.0625 16.2011C27.0153 16.461 26.8781 16.696 26.675 16.865C26.4718 17.0339 26.2157 17.126 25.9516 17.125H9.23406L7.59859 8.125H28.5264L27.0625 16.2011Z" fill="#7F5539"/>
</svg>
