<svg width="32" height="30" viewBox="0 0 32 30" fill="none" xmlns="http://www.w3.org/2000/svg">
<path d="M13.5 13.5V9L21 15L13.5 21V16.5H0V13.5H13.5ZM2.187 19.5H5.373C6.42007 22.0786 8.33056 24.2133 10.7777 25.5389C13.2248 26.8645 16.0565 27.2987 18.7883 26.7671C21.5202 26.2356 23.9825 24.7713 25.754 22.6249C27.5255 20.4784 28.4962 17.7831 28.5 15C28.5016 12.214 27.5337 9.51425 25.7624 7.36383C23.991 5.21342 21.5267 3.74634 18.792 3.21422C16.0572 2.6821 13.2226 3.11811 10.7742 4.44747C8.32576 5.77682 6.4162 7.91667 5.373 10.5H2.187C4.098 4.4145 9.783 0 16.5 0C24.7845 0 31.5 6.7155 31.5 15C31.5 23.2845 24.7845 30 16.5 30C9.783 30 4.098 25.5855 2.187 19.5Z" fill="#7F5539"/>
</svg>
