<svg width="144" height="129" viewBox="0 0 144 129" fill="none" xmlns="http://www.w3.org/2000/svg">
<g clip-path="url(#clip0_559_1478)">
<path d="M96.5472 68.3361C93.9117 68.3361 91.9758 67.6667 90.7398 66.328C89.5036 64.9893 88.8855 62.7699 88.8855 59.6697C88.8855 57.2037 89.2936 54.5498 90.1099 51.708C90.9496 48.8662 92.2791 46.4353 94.0983 44.4156C95.9409 42.3723 98.2732 41.3506 101.095 41.3506C102.845 41.3506 104.256 41.7382 105.329 42.5132C106.401 43.2882 106.938 44.4742 106.938 46.0713C106.938 47.0812 106.74 47.8797 106.343 48.4668C105.947 49.0306 105.329 49.3124 104.489 49.3124C103.649 49.3124 102.984 49.0071 102.495 48.3965C102.915 48.185 103.288 47.7623 103.614 47.1282C103.941 46.4941 104.104 45.8365 104.104 45.1553C104.104 44.5212 103.929 44.0045 103.579 43.6053C103.253 43.2059 102.716 43.0064 101.97 43.0064C100.734 43.0064 99.556 43.8636 98.4364 45.578C97.317 47.2691 96.4073 49.4063 95.7076 51.9898C95.0312 54.5733 94.6931 57.0628 94.6931 59.4584C94.6931 61.2432 94.9962 62.6055 95.6026 63.5449C96.2091 64.4843 97.3052 64.9541 98.8913 64.9541C100.267 64.9541 101.538 64.6488 102.705 64.0381C103.871 63.4275 104.874 62.5585 105.713 61.4311L106.518 61.7834C105.935 63.2631 105.072 64.4961 103.929 65.4825C102.786 66.469 101.562 67.197 100.256 67.6667C98.9496 68.1129 97.7134 68.3361 96.5472 68.3361Z" fill="#7F5539"/>
<path d="M109.459 67.9132C108.689 67.9132 108.036 67.6432 107.5 67.1031C106.964 66.5628 106.695 65.9052 106.695 65.1302C106.695 64.3552 106.964 63.6975 107.5 63.1573C108.036 62.5937 108.689 62.3119 109.459 62.3119C110.229 62.3119 110.882 62.5937 111.418 63.1573C111.978 63.6975 112.258 64.3552 112.258 65.1302C112.258 65.9052 111.978 66.5628 111.418 67.1031C110.882 67.6432 110.229 67.9132 109.459 67.9132Z" fill="#7F5539"/>
<path d="M78.7374 97.5093C76.1018 97.5093 74.166 96.8401 72.9298 95.5013C71.6936 94.1625 71.0756 91.9431 71.0756 88.843C71.0756 86.377 71.4838 83.723 72.3001 80.8812C73.1398 78.0394 74.4692 75.6087 76.2884 73.5889C78.1309 71.5456 80.4632 70.5239 83.2855 70.5239C85.0346 70.5239 86.4458 70.9115 87.5186 71.6865C88.5915 72.4616 89.128 73.6475 89.128 75.2446C89.128 76.2545 88.9298 77.0529 88.5332 77.6402C88.1367 78.2038 87.5186 78.4856 86.679 78.4856C85.8393 78.4856 85.1747 78.1803 84.6849 77.5697C85.1047 77.3583 85.4779 76.9355 85.8044 76.3014C86.1309 75.6673 86.2942 75.0098 86.2942 74.3287C86.2942 73.6945 86.1193 73.1778 85.7694 72.7786C85.4429 72.3793 84.9064 72.1797 84.16 72.1797C82.9239 72.1797 81.7461 73.0369 80.6266 74.7514C79.507 76.4425 78.5975 78.5796 77.8978 81.163C77.2214 83.7465 76.8831 86.236 76.8831 88.6316C76.8831 90.4166 77.1863 91.7787 77.7928 92.7183C78.3992 93.6577 79.4954 94.1274 81.0813 94.1274C82.4574 94.1274 83.7286 93.8221 84.8947 93.2113C86.0609 92.6007 87.0639 91.7318 87.9035 90.6045L88.7081 90.9568C88.1251 92.4363 87.2621 93.6694 86.1193 94.6558C84.9763 95.6422 83.7519 96.3702 82.4458 96.8399C81.1396 97.2863 79.9036 97.5093 78.7374 97.5093Z" fill="#7F5539"/>
<path d="M91.6493 97.0866C90.8797 97.0866 90.2266 96.8165 89.6902 96.2763C89.1537 95.7361 88.8855 95.0786 88.8855 94.3035C88.8855 93.5284 89.1537 92.8709 89.6902 92.3307C90.2266 91.7669 90.8797 91.4851 91.6493 91.4851C92.419 91.4851 93.0721 91.7669 93.6085 92.3307C94.1682 92.8709 94.4482 93.5284 94.4482 94.3035C94.4482 95.0786 94.1682 95.7361 93.6085 96.2763C93.0721 96.8165 92.419 97.0866 91.6493 97.0866Z" fill="#7F5539"/>
<path d="M62.6629 128.472C61.2635 128.472 59.8408 127.85 58.3947 126.605L58.1148 128.014H53.077L57.835 105.609L63.0128 104.904L58.8146 124.668C59.4676 125.137 60.1324 125.372 60.8087 125.372C62.1382 125.372 63.3043 124.597 64.3072 123.047C65.3335 121.497 66.1264 119.524 66.6862 117.129C67.2459 114.733 67.5259 112.314 67.5259 109.871C67.5259 107.57 67.071 105.89 66.1614 104.834C65.2752 103.753 64.0273 103.213 62.418 103.213C60.6687 103.213 59.0944 103.565 57.6951 104.27C56.319 104.951 55.2345 105.937 54.4414 107.229C53.6484 108.521 53.2519 110.036 53.2519 111.774C53.2519 112.643 53.3335 113.253 53.4968 113.606C53.66 113.934 53.7417 114.122 53.7417 114.169C52.5289 114.169 51.5959 113.911 50.9429 113.394C50.3132 112.877 49.9983 112.044 49.9983 110.893C49.9983 109.296 50.593 107.781 51.7825 106.348C52.972 104.916 54.5581 103.765 56.5405 102.896C58.5463 102.027 60.7038 101.593 63.0128 101.593C66.208 101.593 68.5637 102.544 70.0797 104.446C71.5957 106.348 72.3537 108.779 72.3537 111.739C72.3537 114.416 71.8989 117.058 70.9894 119.665C70.1031 122.248 68.9136 124.362 67.4209 126.006C65.9282 127.65 64.3422 128.472 62.6629 128.472Z" fill="#7F5539"/>
<path d="M78.0943 128.155C76.3684 128.155 75.004 127.709 74.0011 126.817C72.9981 125.924 72.4967 124.515 72.4967 122.589C72.4967 120.992 72.8232 119.219 73.4763 117.27C74.1293 115.32 75.1789 113.641 76.625 112.232C78.071 110.799 79.8902 110.083 82.0826 110.083C85.0681 110.083 86.5607 111.962 86.5607 115.719V115.755C86.6306 115.778 86.759 115.79 86.9456 115.79C87.7152 115.79 88.6015 115.59 89.6044 115.191C90.6073 114.768 91.517 114.263 92.3333 113.676L92.6482 114.627C91.9718 115.355 91.0855 115.978 89.9892 116.495C88.9164 116.988 87.7385 117.34 86.4558 117.551C86.2692 119.689 85.791 121.556 85.0214 123.153C84.2516 124.75 83.2605 125.983 82.0476 126.852C80.8348 127.721 79.517 128.155 78.0943 128.155ZM79.4938 124.985C80.0535 124.985 80.6133 124.668 81.1731 124.033C81.7327 123.376 82.2226 122.495 82.6424 121.391C83.0623 120.264 83.3655 119.019 83.5521 117.657C82.9222 117.516 82.6074 117.023 82.6074 116.177C82.6074 115.215 82.9689 114.58 83.692 114.275C83.6453 113.5 83.5287 112.972 83.3421 112.69C83.1555 112.384 82.829 112.232 82.3626 112.232C81.5928 112.232 80.8465 112.795 80.1235 113.923C79.4004 115.05 78.8174 116.4 78.3742 117.974C77.9311 119.548 77.7095 120.933 77.7095 122.131C77.7095 123.258 77.8377 124.022 78.0943 124.421C78.3508 124.797 78.8174 124.985 79.4938 124.985Z" fill="#7F5539"/>
<path d="M100.99 128.226C99.5677 128.226 98.5181 127.85 97.8417 127.098C97.1887 126.323 96.8622 125.372 96.8622 124.245C96.8622 123.752 96.9204 123.2 97.037 122.589C97.1537 121.955 97.2703 121.344 97.3869 120.757C97.5269 120.17 97.6202 119.794 97.6668 119.63C97.8534 118.808 98.0283 117.998 98.1916 117.199C98.3548 116.4 98.4365 115.755 98.4365 115.261C98.4365 114.064 98.0167 113.465 97.1771 113.465C96.5706 113.465 96.0341 113.77 95.5677 114.381C95.1012 114.968 94.728 115.743 94.4482 116.706L92.0692 128.014H87.0314L90.7398 110.4H95.7776L95.3928 112.232C96.559 110.917 97.9233 110.259 99.486 110.259C100.676 110.259 101.62 110.588 102.32 111.245C103.02 111.903 103.369 112.901 103.369 114.24C103.369 114.921 103.288 115.684 103.125 116.53C102.961 117.352 102.728 118.362 102.425 119.559C102.238 120.288 102.063 121.004 101.9 121.708C101.76 122.389 101.69 122.93 101.69 123.329C101.69 123.799 101.795 124.163 102.005 124.421C102.215 124.679 102.576 124.808 103.089 124.808C103.789 124.808 104.349 124.562 104.769 124.069C105.189 123.552 105.608 122.765 106.028 121.708H107.498C106.635 124.292 105.632 126.03 104.489 126.922C103.369 127.791 102.203 128.226 100.99 128.226Z" fill="#7F5539"/>
<path d="M109.488 128.226C108.368 128.226 107.459 127.873 106.759 127.169C106.083 126.464 105.744 125.407 105.744 123.998C105.744 123.411 105.838 122.648 106.024 121.708L108.403 110.4H113.441L110.922 122.378C110.852 122.73 110.817 123.059 110.817 123.364C110.817 124.327 111.167 124.808 111.867 124.808C112.52 124.808 113.079 124.538 113.546 123.998C114.012 123.435 114.386 122.671 114.665 121.708L117.044 110.4H122.082L119.563 122.378C119.47 122.73 119.423 123.106 119.423 123.505C119.423 123.975 119.528 124.315 119.738 124.527C119.972 124.715 120.345 124.808 120.858 124.808C121.511 124.808 122.071 124.527 122.537 123.963C123.027 123.399 123.412 122.648 123.692 121.708H125.161C124.298 124.245 123.225 125.971 121.942 126.887C120.683 127.779 119.412 128.226 118.129 128.226C117.126 128.226 116.321 127.944 115.715 127.38C115.132 126.816 114.782 125.983 114.665 124.879C113.873 126.171 113.033 127.051 112.147 127.521C111.284 127.991 110.397 128.226 109.488 128.226Z" fill="#7F5539"/>
<path d="M127.151 128.226C126.031 128.226 125.122 127.873 124.422 127.169C123.746 126.464 123.408 125.407 123.408 123.998C123.408 123.411 123.501 122.648 123.688 121.708L125.787 111.809H124.632L124.912 110.4H126.067L127.116 105.538L132.294 104.834L131.104 110.4H133.203L132.924 111.809H130.824L128.586 122.378C128.492 122.73 128.446 123.106 128.446 123.505C128.446 123.975 128.55 124.315 128.761 124.527C128.994 124.715 129.367 124.809 129.879 124.809C130.557 124.809 131.185 124.527 131.77 123.963C132.352 123.376 132.772 122.624 133.028 121.708H134.498C133.636 124.245 132.527 125.971 131.174 126.887C129.822 127.779 128.48 128.226 127.151 128.226Z" fill="#7F5539"/>
<path d="M137.003 128.226C135.883 128.226 134.939 128.014 134.169 127.592C133.4 127.145 132.828 126.582 132.454 125.901C132.082 125.196 131.895 124.468 131.895 123.716C131.895 122.941 132.082 122.272 132.454 121.708C132.805 121.121 133.236 120.698 133.749 120.44C134.658 118.796 135.452 117.14 136.128 115.473C136.805 113.782 137.447 111.962 138.052 110.012L143.231 109.308C143.347 112.314 143.545 115.567 143.825 119.066C143.941 120.475 144 121.497 144 122.131C144 123.564 143.639 124.738 142.916 125.654C142.193 126.57 141.295 127.228 140.222 127.627C139.172 128.026 138.1 128.226 137.003 128.226ZM135.883 125.443C136.746 125.443 137.47 125.184 138.052 124.668C138.635 124.151 138.927 123.317 138.927 122.166C138.927 121.462 138.857 120.475 138.717 119.207C138.484 116.53 138.332 114.733 138.263 113.817C137.703 115.672 136.758 117.892 135.429 120.475C135.965 120.757 136.234 121.168 136.234 121.708C136.234 122.155 136.082 122.554 135.778 122.906C135.499 123.258 135.137 123.435 134.694 123.435C134.204 123.435 133.889 123.282 133.749 122.977C133.749 123.822 133.912 124.444 134.239 124.844C134.588 125.243 135.137 125.443 135.883 125.443Z" fill="#7F5539"/>
<path d="M83.3494 44.7984C76.8294 40.9007 69.0305 39.7567 61.6684 41.6181C54.3063 43.4795 47.984 48.1936 44.0923 54.7237C40.2006 61.2538 39.0584 69.0648 40.9169 76.4383C42.7754 83.8119 47.4823 90.1439 54.0022 94.0416L68.6758 69.42L83.3494 44.7984Z" fill="#E8C2CA"/>
<path d="M45.7714 107.493C40.7395 104.514 36.3461 100.566 32.8442 95.8786C29.3424 91.191 26.8014 85.8556 25.3677 80.18C23.9339 74.5044 23.6359 68.6007 24.4905 62.8091C25.3454 57.0176 27.336 51.4526 30.3477 46.4352C33.3595 41.4177 37.3329 37.0466 42.039 33.5742C46.7452 30.1016 52.0908 27.5961 57.7682 26.2022C63.4454 24.8082 69.342 24.5532 75.1181 25.452C80.8943 26.3509 86.4357 28.3857 91.423 31.4392L83.6971 44.0974C80.3773 42.0648 76.6888 40.7105 72.8439 40.1121C68.9992 39.5139 65.0742 39.6835 61.2952 40.6115C57.5162 41.5393 53.9579 43.207 50.8253 45.5185C47.6927 47.8299 45.0479 50.7394 43.0431 54.0793C41.0383 57.4192 39.7132 61.1234 39.1444 64.9785C38.5754 68.8336 38.7738 72.7632 39.7281 76.5412C40.6824 80.3191 42.3738 83.8705 44.7049 86.9908C47.0358 90.1111 49.9603 92.7384 53.3097 94.7216L45.7714 107.493Z" fill="#D1B3C4"/>
<path d="M33.5727 128.512C17.9612 119.175 6.68618 104.015 2.22212 86.3602C-2.24195 68.7056 0.469585 49.9983 9.76164 34.3437C19.0537 18.6893 34.1672 7.3663 51.7854 2.85981C69.4036 -1.64669 88.0872 1.0314 103.736 10.3064L92.0459 30.0918C81.6294 23.918 69.1928 22.1353 57.4655 25.135C45.7381 28.1347 35.678 35.6718 29.4928 46.092C23.3077 56.5123 21.5028 68.9646 24.4742 80.7162C27.4457 92.4678 34.9507 102.559 45.3423 108.774L33.5727 128.512Z" fill="#B392AC"/>
</g>
<defs>
<clipPath id="clip0_559_1478">
<rect width="144" height="128" fill="white" transform="translate(0 0.600098)"/>
</clipPath>
</defs>
</svg>
